<?xml version="1.0" encoding="UTF-8" ?>
<svg version="1.1" width="96" height="96" xmlns="http://www.w3.org/2000/svg" shape-rendering="crispEdges">
<rect x="3" y="0" width="45" height="45" fill="#000000" />
<rect x="48" y="0" width="3" height="3" fill="#81266D" />
<rect x="51" y="0" width="42" height="3" fill="#BC1B99" />
<rect x="0" y="3" width="3" height="45" fill="#000000" />
<rect x="48" y="3" width="3" height="45" fill="#9B2681" opacity="0.929412" />
<rect x="51" y="3" width="42" height="3" fill="#E81BBC" />
<rect x="93" y="3" width="3" height="42" fill="#BC1B99" />
<rect x="51" y="6" width="3" height="3" fill="#E81BBC" />
<rect x="54" y="6" width="3" height="3" fill="#FF25D0" opacity="0.737255" />
<rect x="57" y="6" width="3" height="3" fill="#E81BBC" />
<rect x="60" y="6" width="3" height="3" fill="#FF25D0" opacity="0.737255" />
<rect x="63" y="6" width="3" height="3" fill="#E81BBC" />
<rect x="66" y="6" width="3" height="3" fill="#FF25D0" opacity="0.737255" />
<rect x="69" y="6" width="3" height="3" fill="#E81BBC" />
<rect x="72" y="6" width="3" height="3" fill="#FF25D0" opacity="0.737255" />
<rect x="75" y="6" width="3" height="3" fill="#E81BBC" />
<rect x="78" y="6" width="3" height="3" fill="#FF25D0" opacity="0.737255" />
<rect x="81" y="6" width="3" height="3" fill="#E81BBC" />
<rect x="84" y="6" width="3" height="3" fill="#FF25D0" opacity="0.737255" />
<rect x="87" y="6" width="6" height="3" fill="#E81BBC" />
<rect x="51" y="9" width="3" height="36" fill="#FF25D0" opacity="0.737255" />
<rect x="54" y="9" width="3" height="3" fill="#E81BBC" />
<rect x="57" y="9" width="3" height="36" fill="#FF25D0" opacity="0.737255" />
<rect x="60" y="9" width="3" height="3" fill="#E81BBC" />
<rect x="63" y="9" width="3" height="36" fill="#FF25D0" opacity="0.737255" />
<rect x="66" y="9" width="3" height="3" fill="#E81BBC" />
<rect x="69" y="9" width="3" height="36" fill="#FF25D0" opacity="0.737255" />
<rect x="72" y="9" width="3" height="3" fill="#E81BBC" />
<rect x="75" y="9" width="3" height="36" fill="#FF25D0" opacity="0.737255" />
<rect x="78" y="9" width="3" height="3" fill="#E81BBC" />
<rect x="81" y="9" width="3" height="36" fill="#FF25D0" opacity="0.737255" />
<rect x="84" y="9" width="3" height="3" fill="#E81BBC" />
<rect x="87" y="9" width="3" height="3" fill="#FF25D0" opacity="0.737255" />
<rect x="90" y="9" width="3" height="36" fill="#E81BBC" />
<rect x="54" y="12" width="3" height="33" fill="#FF25D0" opacity="0.737255" />
<rect x="60" y="12" width="3" height="33" fill="#FF25D0" opacity="0.737255" />
<rect x="66" y="12" width="3" height="33" fill="#FF25D0" opacity="0.737255" />
<rect x="72" y="12" width="3" height="33" fill="#FF25D0" opacity="0.737255" />
<rect x="78" y="12" width="3" height="33" fill="#FF25D0" opacity="0.737255" />
<rect x="84" y="12" width="3" height="3" fill="#FF25D0" opacity="0.737255" />
<rect x="87" y="12" width="3" height="3" fill="#E81BBC" />
<rect x="84" y="15" width="3" height="3" fill="#E81BBC" />
<rect x="87" y="15" width="3" height="3" fill="#FF25D0" opacity="0.737255" />
<rect x="84" y="18" width="3" height="3" fill="#FF25D0" opacity="0.737255" />
<rect x="87" y="18" width="3" height="3" fill="#E81BBC" />
<rect x="84" y="21" width="3" height="3" fill="#E81BBC" />
<rect x="87" y="21" width="3" height="3" fill="#FF25D0" opacity="0.737255" />
<rect x="84" y="24" width="3" height="3" fill="#FF25D0" opacity="0.737255" />
<rect x="87" y="24" width="3" height="3" fill="#E81BBC" />
<rect x="84" y="27" width="3" height="3" fill="#E81BBC" />
<rect x="87" y="27" width="3" height="3" fill="#FF25D0" opacity="0.737255" />
<rect x="84" y="30" width="3" height="3" fill="#FF25D0" opacity="0.737255" />
<rect x="87" y="30" width="3" height="3" fill="#E81BBC" />
<rect x="84" y="33" width="3" height="3" fill="#E81BBC" />
<rect x="87" y="33" width="3" height="3" fill="#FF25D0" opacity="0.737255" />
<rect x="84" y="36" width="3" height="3" fill="#FF25D0" opacity="0.737255" />
<rect x="87" y="36" width="3" height="3" fill="#E81BBC" />
<rect x="84" y="39" width="3" height="3" fill="#E81BBC" />
<rect x="87" y="39" width="3" height="3" fill="#FF25D0" opacity="0.737255" />
<rect x="84" y="42" width="3" height="3" fill="#FF25D0" opacity="0.737255" />
<rect x="87" y="42" width="3" height="3" fill="#E81BBC" />
<rect x="3" y="45" width="42" height="3" fill="#000000" />
<rect x="45" y="45" width="3" height="3" fill="#97257E" />
<rect x="51" y="45" width="42" height="3" fill="#9B2681" opacity="0.929412" />
<rect x="93" y="45" width="3" height="3" fill="#81266D" />
<rect x="0" y="48" width="3" height="3" fill="#81266D" />
<rect x="3" y="48" width="45" height="3" fill="#9B2681" opacity="0.929412" />
<rect x="48" y="48" width="3" height="3" fill="#97257E" />
<rect x="51" y="48" width="45" height="45" fill="#000000" />
<rect x="0" y="51" width="3" height="42" fill="#BC1B99" />
<rect x="3" y="51" width="6" height="3" fill="#E81BBC" />
<rect x="9" y="51" width="36" height="3" fill="#FF25D0" opacity="0.737255" />
<rect x="45" y="51" width="3" height="42" fill="#9B2681" opacity="0.929412" />
<rect x="48" y="51" width="3" height="45" fill="#000000" />
<rect x="3" y="54" width="3" height="39" fill="#E81BBC" />
<rect x="6" y="54" width="3" height="3" fill="#FF25D0" opacity="0.737255" />
<rect x="9" y="54" width="3" height="3" fill="#E81BBC" />
<rect x="12" y="54" width="33" height="30" fill="#FF25D0" opacity="0.737255" />
<rect x="6" y="57" width="3" height="3" fill="#E81BBC" />
<rect x="9" y="57" width="3" height="3" fill="#FF25D0" opacity="0.737255" />
<rect x="6" y="60" width="3" height="3" fill="#FF25D0" opacity="0.737255" />
<rect x="9" y="60" width="3" height="3" fill="#E81BBC" />
<rect x="6" y="63" width="3" height="3" fill="#E81BBC" />
<rect x="9" y="63" width="3" height="3" fill="#FF25D0" opacity="0.737255" />
<rect x="6" y="66" width="3" height="3" fill="#FF25D0" opacity="0.737255" />
<rect x="9" y="66" width="3" height="3" fill="#E81BBC" />
<rect x="6" y="69" width="3" height="3" fill="#E81BBC" />
<rect x="9" y="69" width="3" height="3" fill="#FF25D0" opacity="0.737255" />
<rect x="6" y="72" width="3" height="3" fill="#FF25D0" opacity="0.737255" />
<rect x="9" y="72" width="3" height="3" fill="#E81BBC" />
<rect x="6" y="75" width="3" height="3" fill="#E81BBC" />
<rect x="9" y="75" width="3" height="3" fill="#FF25D0" opacity="0.737255" />
<rect x="6" y="78" width="3" height="3" fill="#FF25D0" opacity="0.737255" />
<rect x="9" y="78" width="3" height="3" fill="#E81BBC" />
<rect x="6" y="81" width="3" height="3" fill="#E81BBC" />
<rect x="9" y="81" width="3" height="3" fill="#FF25D0" opacity="0.737255" />
<rect x="6" y="84" width="3" height="3" fill="#FF25D0" opacity="0.737255" />
<rect x="9" y="84" width="3" height="3" fill="#E81BBC" />
<rect x="12" y="84" width="3" height="3" fill="#FF25D0" opacity="0.737255" />
<rect x="15" y="84" width="3" height="3" fill="#E81BBC" />
<rect x="18" y="84" width="3" height="3" fill="#FF25D0" opacity="0.737255" />
<rect x="21" y="84" width="3" height="3" fill="#E81BBC" />
<rect x="24" y="84" width="3" height="3" fill="#FF25D0" opacity="0.737255" />
<rect x="27" y="84" width="3" height="3" fill="#E81BBC" />
<rect x="30" y="84" width="3" height="3" fill="#FF25D0" opacity="0.737255" />
<rect x="33" y="84" width="3" height="3" fill="#E81BBC" />
<rect x="36" y="84" width="3" height="3" fill="#FF25D0" opacity="0.737255" />
<rect x="39" y="84" width="3" height="3" fill="#E81BBC" />
<rect x="42" y="84" width="3" height="3" fill="#FF25D0" opacity="0.737255" />
<rect x="6" y="87" width="3" height="6" fill="#E81BBC" />
<rect x="9" y="87" width="3" height="3" fill="#FF25D0" opacity="0.737255" />
<rect x="12" y="87" width="3" height="6" fill="#E81BBC" />
<rect x="15" y="87" width="3" height="3" fill="#FF25D0" opacity="0.737255" />
<rect x="18" y="87" width="3" height="6" fill="#E81BBC" />
<rect x="21" y="87" width="3" height="3" fill="#FF25D0" opacity="0.737255" />
<rect x="24" y="87" width="3" height="6" fill="#E81BBC" />
<rect x="27" y="87" width="3" height="3" fill="#FF25D0" opacity="0.737255" />
<rect x="30" y="87" width="3" height="6" fill="#E81BBC" />
<rect x="33" y="87" width="3" height="3" fill="#FF25D0" opacity="0.737255" />
<rect x="36" y="87" width="3" height="6" fill="#E81BBC" />
<rect x="39" y="87" width="3" height="3" fill="#FF25D0" opacity="0.737255" />
<rect x="42" y="87" width="3" height="6" fill="#E81BBC" />
<rect x="9" y="90" width="3" height="3" fill="#E81BBC" />
<rect x="15" y="90" width="3" height="3" fill="#E81BBC" />
<rect x="21" y="90" width="3" height="3" fill="#E81BBC" />
<rect x="27" y="90" width="3" height="3" fill="#E81BBC" />
<rect x="33" y="90" width="3" height="3" fill="#E81BBC" />
<rect x="39" y="90" width="3" height="3" fill="#E81BBC" />
<rect x="3" y="93" width="42" height="3" fill="#BC1B99" />
<rect x="45" y="93" width="3" height="3" fill="#852570" />
<rect x="51" y="93" width="42" height="3" fill="#000000" />
</svg>