<?xml version="1.0" encoding="UTF-8" ?>
<svg version="1.1" width="75" height="63" xmlns="http://www.w3.org/2000/svg" shape-rendering="crispEdges">
<rect x="21" y="0" width="3" height="3" fill="#000000" />
<rect x="18" y="3" width="3" height="3" fill="#000000" />
<rect x="21" y="3" width="3" height="3" fill="#C83A3A" />
<rect x="24" y="3" width="3" height="3" fill="#000000" />
<rect x="60" y="3" width="6" height="3" fill="#000000" />
<rect x="15" y="6" width="3" height="3" fill="#000000" />
<rect x="18" y="6" width="3" height="3" fill="#C83A3A" />
<rect x="21" y="6" width="3" height="24" fill="#FF3F3F" />
<rect x="24" y="6" width="3" height="3" fill="#C83A3A" />
<rect x="27" y="6" width="3" height="3" fill="#000000" />
<rect x="57" y="6" width="3" height="3" fill="#000000" />
<rect x="60" y="6" width="6" height="3" fill="#AD3535" />
<rect x="66" y="6" width="3" height="3" fill="#000000" />
<rect x="12" y="9" width="3" height="3" fill="#000000" />
<rect x="15" y="9" width="3" height="3" fill="#C83A3A" />
<rect x="18" y="9" width="3" height="24" fill="#FF3F3F" />
<rect x="24" y="9" width="3" height="21" fill="#FF3F3F" />
<rect x="27" y="9" width="3" height="3" fill="#AD3535" />
<rect x="30" y="9" width="3" height="6" fill="#000000" />
<rect x="54" y="9" width="3" height="3" fill="#000000" />
<rect x="57" y="9" width="3" height="3" fill="#AD3535" />
<rect x="60" y="9" width="6" height="27" fill="#FF3F3F" />
<rect x="66" y="9" width="3" height="33" fill="#892A2A" />
<rect x="69" y="9" width="3" height="33" fill="#000000" />
<rect x="9" y="12" width="3" height="12" fill="#000000" />
<rect x="12" y="12" width="3" height="12" fill="#C83A3A" />
<rect x="15" y="12" width="3" height="21" fill="#FF3F3F" />
<rect x="27" y="12" width="3" height="3" fill="#C83A3A" />
<rect x="51" y="12" width="3" height="3" fill="#000000" />
<rect x="54" y="12" width="3" height="3" fill="#AD3535" />
<rect x="57" y="12" width="3" height="21" fill="#FF3F3F" />
<rect x="27" y="15" width="3" height="15" fill="#FF3F3F" />
<rect x="30" y="15" width="3" height="6" fill="#C83A3A" />
<rect x="33" y="15" width="3" height="6" fill="#000000" />
<rect x="48" y="15" width="3" height="3" fill="#000000" />
<rect x="51" y="15" width="3" height="3" fill="#AD3535" />
<rect x="54" y="15" width="3" height="18" fill="#FF3F3F" />
<rect x="45" y="18" width="3" height="6" fill="#000000" />
<rect x="48" y="18" width="3" height="6" fill="#AD3535" />
<rect x="51" y="18" width="3" height="15" fill="#FF3F3F" />
<rect x="30" y="21" width="3" height="9" fill="#FF3F3F" />
<rect x="33" y="21" width="3" height="9" fill="#C83A3A" />
<rect x="36" y="21" width="3" height="9" fill="#000000" />
<rect x="6" y="24" width="3" height="12" fill="#000000" />
<rect x="9" y="24" width="3" height="12" fill="#C83A3A" />
<rect x="12" y="24" width="3" height="9" fill="#FF3F3F" />
<rect x="42" y="24" width="3" height="6" fill="#000000" />
<rect x="45" y="24" width="3" height="9" fill="#AD3535" />
<rect x="48" y="24" width="3" height="9" fill="#FF3F3F" />
<rect x="21" y="30" width="24" height="3" fill="#AD3535" />
<rect x="12" y="33" width="9" height="3" fill="#AD3535" />
<rect x="21" y="33" width="27" height="3" fill="#FF3F3F" />
<rect x="48" y="33" width="12" height="3" fill="#AD3535" />
<rect x="3" y="36" width="3" height="3" fill="#000000" />
<rect x="6" y="36" width="6" height="3" fill="#AD3535" />
<rect x="12" y="36" width="12" height="3" fill="#FF3F3F" />
<rect x="24" y="36" width="3" height="6" fill="#000000" />
<rect x="27" y="36" width="33" height="3" fill="#FF3F3F" />
<rect x="60" y="36" width="3" height="3" fill="#AD3535" />
<rect x="63" y="36" width="3" height="3" fill="#FF3F3F" />
<rect x="0" y="39" width="3" height="12" fill="#000000" />
<rect x="3" y="39" width="3" height="12" fill="#E43F3F" />
<rect x="6" y="39" width="15" height="12" fill="#FF3F3F" />
<rect x="21" y="39" width="3" height="3" fill="#FFFFFF" />
<rect x="27" y="39" width="3" height="9" fill="#000000" />
<rect x="30" y="39" width="3" height="9" fill="#E83939" />
<rect x="33" y="39" width="12" height="3" fill="#FF3F3F" />
<rect x="45" y="39" width="3" height="6" fill="#000000" />
<rect x="48" y="39" width="15" height="3" fill="#FF3F3F" />
<rect x="63" y="39" width="3" height="3" fill="#AD3535" />
<rect x="21" y="42" width="3" height="3" fill="#DBD7D7" />
<rect x="24" y="42" width="3" height="3" fill="#FFFFFF" />
<rect x="33" y="42" width="9" height="15" fill="#FF3F3F" />
<rect x="42" y="42" width="3" height="3" fill="#FFFFFF" />
<rect x="48" y="42" width="3" height="9" fill="#000000" />
<rect x="51" y="42" width="3" height="9" fill="#E83939" />
<rect x="54" y="42" width="15" height="6" fill="#FF3F3F" />
<rect x="69" y="42" width="3" height="9" fill="#892A2A" />
<rect x="72" y="42" width="3" height="12" fill="#000000" />
<rect x="21" y="45" width="3" height="3" fill="#000000" />
<rect x="24" y="45" width="3" height="3" fill="#DBD7D7" />
<rect x="42" y="45" width="3" height="3" fill="#DBD7D7" />
<rect x="45" y="45" width="3" height="3" fill="#FFFFFF" />
<rect x="21" y="48" width="3" height="9" fill="#FF3F3F" />
<rect x="24" y="48" width="3" height="3" fill="#000000" />
<rect x="27" y="48" width="3" height="3" fill="#E83939" />
<rect x="30" y="48" width="3" height="9" fill="#FF3F3F" />
<rect x="42" y="48" width="3" height="3" fill="#000000" />
<rect x="45" y="48" width="3" height="3" fill="#DBD7D7" />
<rect x="54" y="48" width="12" height="6" fill="#FF3F3F" />
<rect x="66" y="48" width="3" height="3" fill="#DB3030" />
<rect x="3" y="51" width="3" height="3" fill="#000000" />
<rect x="6" y="51" width="3" height="3" fill="#A42828" />
<rect x="9" y="51" width="12" height="3" fill="#FF3F3F" />
<rect x="24" y="51" width="6" height="6" fill="#FF3F3F" />
<rect x="42" y="51" width="3" height="6" fill="#FF3F3F" />
<rect x="45" y="51" width="3" height="3" fill="#000000" />
<rect x="48" y="51" width="3" height="3" fill="#E83939" />
<rect x="51" y="51" width="3" height="6" fill="#FF3F3F" />
<rect x="66" y="51" width="3" height="3" fill="#892A2A" />
<rect x="69" y="51" width="3" height="3" fill="#5B2020" />
<rect x="6" y="54" width="3" height="3" fill="#000000" />
<rect x="9" y="54" width="6" height="3" fill="#A42828" />
<rect x="15" y="54" width="6" height="3" fill="#B62D2D" />
<rect x="45" y="54" width="6" height="3" fill="#FF3F3F" />
<rect x="54" y="54" width="6" height="3" fill="#FF3F3F" />
<rect x="60" y="54" width="3" height="3" fill="#DB3030" />
<rect x="63" y="54" width="3" height="3" fill="#892A2A" />
<rect x="66" y="54" width="3" height="3" fill="#5B2020" />
<rect x="69" y="54" width="3" height="3" fill="#000000" />
<rect x="9" y="57" width="12" height="3" fill="#000000" />
<rect x="21" y="57" width="42" height="3" fill="#A42828" />
<rect x="63" y="57" width="3" height="3" fill="#5B2020" />
<rect x="66" y="57" width="3" height="3" fill="#000000" />
<rect x="21" y="60" width="45" height="3" fill="#000000" />
</svg>