<?xml version="1.0" encoding="UTF-8" ?>
<svg version="1.1" width="96" height="96" xmlns="http://www.w3.org/2000/svg" shape-rendering="crispEdges">
<rect x="57" y="3" width="3" height="3" fill="#FF5C5C" />
<rect x="15" y="6" width="6" height="3" fill="#FF5C5C" />
<rect x="54" y="6" width="3" height="3" fill="#FF5C5C" />
<rect x="57" y="6" width="3" height="3" fill="#000000" />
<rect x="60" y="6" width="3" height="3" fill="#FF5C5C" />
<rect x="12" y="9" width="3" height="3" fill="#FF5C5C" />
<rect x="15" y="9" width="6" height="3" fill="#000000" />
<rect x="21" y="9" width="3" height="3" fill="#FF5C5C" />
<rect x="51" y="9" width="3" height="3" fill="#FF5C5C" />
<rect x="54" y="9" width="3" height="3" fill="#000000" />
<rect x="57" y="9" width="3" height="3" fill="#CD3535" />
<rect x="60" y="9" width="3" height="3" fill="#000000" />
<rect x="63" y="9" width="3" height="3" fill="#FF5C5C" />
<rect x="9" y="12" width="3" height="3" fill="#FF5C5C" />
<rect x="12" y="12" width="3" height="3" fill="#000000" />
<rect x="15" y="12" width="6" height="3" fill="#BB1E1E" />
<rect x="21" y="12" width="3" height="3" fill="#000000" />
<rect x="24" y="12" width="3" height="3" fill="#FF5C5C" />
<rect x="48" y="12" width="3" height="6" fill="#FF5C5C" />
<rect x="51" y="12" width="3" height="6" fill="#000000" />
<rect x="54" y="12" width="3" height="6" fill="#CD3535" />
<rect x="57" y="12" width="3" height="33" fill="#FF0000" />
<rect x="60" y="12" width="3" height="6" fill="#CD3535" />
<rect x="63" y="12" width="3" height="6" fill="#000000" />
<rect x="66" y="12" width="3" height="6" fill="#FF5C5C" />
<rect x="6" y="15" width="3" height="12" fill="#FF5C5C" />
<rect x="9" y="15" width="3" height="12" fill="#000000" />
<rect x="12" y="15" width="3" height="12" fill="#BB1E1E" />
<rect x="15" y="15" width="6" height="12" fill="#FF0000" />
<rect x="21" y="15" width="3" height="3" fill="#BB1E1E" />
<rect x="24" y="15" width="3" height="3" fill="#000000" />
<rect x="27" y="15" width="3" height="3" fill="#FF5C5C" />
<rect x="21" y="18" width="3" height="24" fill="#FF0000" />
<rect x="24" y="18" width="3" height="3" fill="#BB1E1E" />
<rect x="27" y="18" width="3" height="3" fill="#000000" />
<rect x="30" y="18" width="3" height="3" fill="#FF5C5C" />
<rect x="45" y="18" width="3" height="6" fill="#FF5C5C" />
<rect x="48" y="18" width="3" height="6" fill="#000000" />
<rect x="51" y="18" width="3" height="6" fill="#BB1E1E" />
<rect x="54" y="18" width="3" height="24" fill="#FF0000" />
<rect x="60" y="18" width="3" height="30" fill="#FF0000" />
<rect x="63" y="18" width="3" height="12" fill="#CD3535" />
<rect x="66" y="18" width="3" height="12" fill="#000000" />
<rect x="69" y="18" width="3" height="12" fill="#FF5C5C" />
<rect x="24" y="21" width="3" height="42" fill="#FF0000" />
<rect x="27" y="21" width="3" height="6" fill="#BB1E1E" />
<rect x="30" y="21" width="3" height="6" fill="#000000" />
<rect x="33" y="21" width="3" height="6" fill="#FF5C5C" />
<rect x="42" y="24" width="3" height="12" fill="#FF5C5C" />
<rect x="45" y="24" width="3" height="12" fill="#000000" />
<rect x="48" y="24" width="3" height="9" fill="#BB1E1E" />
<rect x="51" y="24" width="3" height="21" fill="#FF0000" />
<rect x="9" y="27" width="3" height="6" fill="#FF5C5C" />
<rect x="12" y="27" width="3" height="6" fill="#000000" />
<rect x="15" y="27" width="3" height="6" fill="#BB1E1E" />
<rect x="18" y="27" width="3" height="6" fill="#FF0000" />
<rect x="27" y="27" width="3" height="21" fill="#FF0000" />
<rect x="30" y="27" width="3" height="3" fill="#BB1E1E" />
<rect x="33" y="27" width="3" height="3" fill="#000000" />
<rect x="36" y="27" width="3" height="3" fill="#FF5C5C" />
<rect x="30" y="30" width="3" height="15" fill="#FF0000" />
<rect x="33" y="30" width="3" height="3" fill="#BB1E1E" />
<rect x="36" y="30" width="3" height="3" fill="#000000" />
<rect x="39" y="30" width="3" height="3" fill="#FF5C5C" />
<rect x="63" y="30" width="3" height="33" fill="#FF0000" />
<rect x="66" y="30" width="3" height="12" fill="#9F2020" />
<rect x="69" y="30" width="3" height="12" fill="#000000" />
<rect x="72" y="30" width="3" height="9" fill="#FF5C5C" />
<rect x="12" y="33" width="3" height="9" fill="#FF5C5C" />
<rect x="15" y="33" width="3" height="9" fill="#000000" />
<rect x="18" y="33" width="3" height="9" fill="#BB1E1E" />
<rect x="33" y="33" width="3" height="9" fill="#FF0000" />
<rect x="36" y="33" width="3" height="3" fill="#BB1E1E" />
<rect x="39" y="33" width="3" height="3" fill="#000000" />
<rect x="48" y="33" width="3" height="15" fill="#FF0000" />
<rect x="36" y="36" width="3" height="9" fill="#FF0000" />
<rect x="39" y="36" width="3" height="3" fill="#BB1E1E" />
<rect x="42" y="36" width="3" height="3" fill="#000000" />
<rect x="45" y="36" width="3" height="3" fill="#BB1E1E" />
<rect x="75" y="36" width="3" height="3" fill="#FF5C5C" />
<rect x="39" y="39" width="3" height="9" fill="#FF0000" />
<rect x="42" y="39" width="3" height="3" fill="#BB1E1E" />
<rect x="45" y="39" width="3" height="30" fill="#FF0000" />
<rect x="72" y="39" width="6" height="3" fill="#000000" />
<rect x="78" y="39" width="3" height="3" fill="#FF5C5C" />
<rect x="15" y="42" width="3" height="9" fill="#FF5C5C" />
<rect x="18" y="42" width="3" height="9" fill="#000000" />
<rect x="21" y="42" width="3" height="9" fill="#BB1E1E" />
<rect x="33" y="42" width="3" height="3" fill="#000000" />
<rect x="42" y="42" width="3" height="27" fill="#FF0000" />
<rect x="54" y="42" width="3" height="3" fill="#000000" />
<rect x="66" y="42" width="3" height="15" fill="#FF0000" />
<rect x="69" y="42" width="6" height="3" fill="#801E1E" />
<rect x="75" y="42" width="6" height="3" fill="#000000" />
<rect x="81" y="42" width="3" height="3" fill="#FF5C5C" />
<rect x="30" y="45" width="3" height="3" fill="#000000" />
<rect x="33" y="45" width="3" height="3" fill="#FFFFFF" />
<rect x="36" y="45" width="3" height="12" fill="#000000" />
<rect x="51" y="45" width="3" height="3" fill="#000000" />
<rect x="54" y="45" width="3" height="3" fill="#FFFFFF" />
<rect x="57" y="45" width="3" height="12" fill="#000000" />
<rect x="69" y="45" width="6" height="12" fill="#FF0000" />
<rect x="75" y="45" width="3" height="3" fill="#801E1E" />
<rect x="78" y="45" width="6" height="3" fill="#000000" />
<rect x="84" y="45" width="3" height="3" fill="#FF5C5C" />
<rect x="27" y="48" width="3" height="6" fill="#000000" />
<rect x="30" y="48" width="3" height="3" fill="#FFFFFF" />
<rect x="33" y="48" width="3" height="3" fill="#C8C8C8" />
<rect x="39" y="48" width="3" height="6" fill="#000000" />
<rect x="48" y="48" width="3" height="6" fill="#000000" />
<rect x="51" y="48" width="3" height="3" fill="#FFFFFF" />
<rect x="54" y="48" width="3" height="3" fill="#C8C8C8" />
<rect x="60" y="48" width="3" height="6" fill="#000000" />
<rect x="75" y="48" width="3" height="21" fill="#D60909" />
<rect x="78" y="48" width="3" height="21" fill="#801E1E" />
<rect x="81" y="48" width="6" height="21" fill="#000000" />
<rect x="87" y="48" width="3" height="21" fill="#FF5C5C" />
<rect x="12" y="51" width="3" height="3" fill="#FF5C5C" />
<rect x="15" y="51" width="3" height="3" fill="#000000" />
<rect x="18" y="51" width="3" height="3" fill="#CD3535" />
<rect x="21" y="51" width="3" height="24" fill="#FF0000" />
<rect x="30" y="51" width="3" height="3" fill="#C8C8C8" />
<rect x="33" y="51" width="3" height="9" fill="#000000" />
<rect x="51" y="51" width="3" height="3" fill="#C8C8C8" />
<rect x="54" y="51" width="3" height="9" fill="#000000" />
<rect x="9" y="54" width="3" height="3" fill="#FF5C5C" />
<rect x="12" y="54" width="3" height="3" fill="#000000" />
<rect x="15" y="54" width="3" height="3" fill="#CD3535" />
<rect x="18" y="54" width="3" height="18" fill="#FF0000" />
<rect x="27" y="54" width="3" height="12" fill="#FF0000" />
<rect x="30" y="54" width="3" height="3" fill="#000000" />
<rect x="39" y="54" width="3" height="3" fill="#AD1717" />
<rect x="48" y="54" width="3" height="12" fill="#FF0000" />
<rect x="51" y="54" width="3" height="3" fill="#000000" />
<rect x="60" y="54" width="3" height="3" fill="#AD1717" />
<rect x="6" y="57" width="3" height="15" fill="#FF5C5C" />
<rect x="9" y="57" width="3" height="15" fill="#000000" />
<rect x="12" y="57" width="3" height="15" fill="#CD3535" />
<rect x="15" y="57" width="3" height="15" fill="#FF0000" />
<rect x="30" y="57" width="3" height="12" fill="#FF0000" />
<rect x="36" y="57" width="3" height="3" fill="#AD1717" />
<rect x="39" y="57" width="3" height="12" fill="#FF0000" />
<rect x="51" y="57" width="3" height="9" fill="#FF0000" />
<rect x="57" y="57" width="3" height="3" fill="#AD1717" />
<rect x="60" y="57" width="3" height="9" fill="#FF0000" />
<rect x="66" y="57" width="3" height="6" fill="#000000" />
<rect x="69" y="57" width="3" height="6" fill="#AD1717" />
<rect x="72" y="57" width="3" height="12" fill="#FF0000" />
<rect x="33" y="60" width="6" height="9" fill="#FF0000" />
<rect x="54" y="60" width="6" height="6" fill="#FF0000" />
<rect x="24" y="63" width="3" height="3" fill="#000000" />
<rect x="63" y="63" width="3" height="3" fill="#000000" />
<rect x="66" y="63" width="3" height="3" fill="#AD1717" />
<rect x="69" y="63" width="3" height="6" fill="#FF0000" />
<rect x="24" y="66" width="3" height="3" fill="#D12A2A" />
<rect x="27" y="66" width="3" height="3" fill="#000000" />
<rect x="48" y="66" width="15" height="3" fill="#000000" />
<rect x="63" y="66" width="3" height="3" fill="#AD1717" />
<rect x="66" y="66" width="3" height="3" fill="#FF0000" />
<rect x="24" y="69" width="3" height="6" fill="#FF0000" />
<rect x="27" y="69" width="3" height="3" fill="#D12A2A" />
<rect x="30" y="69" width="18" height="3" fill="#000000" />
<rect x="48" y="69" width="15" height="3" fill="#9B1919" />
<rect x="63" y="69" width="3" height="3" fill="#FF0000" />
<rect x="66" y="69" width="9" height="3" fill="#D60909" />
<rect x="75" y="69" width="3" height="3" fill="#892626" />
<rect x="78" y="69" width="6" height="3" fill="#000000" />
<rect x="84" y="69" width="3" height="3" fill="#FF5C5C" />
<rect x="9" y="72" width="3" height="3" fill="#FF5C5C" />
<rect x="12" y="72" width="3" height="3" fill="#000000" />
<rect x="15" y="72" width="3" height="3" fill="#892626" />
<rect x="18" y="72" width="3" height="3" fill="#D60909" />
<rect x="27" y="72" width="3" height="3" fill="#FF0000" />
<rect x="30" y="72" width="18" height="3" fill="#841D1D" />
<rect x="48" y="72" width="18" height="3" fill="#D60909" />
<rect x="66" y="72" width="9" height="3" fill="#892626" />
<rect x="75" y="72" width="6" height="6" fill="#000000" />
<rect x="81" y="72" width="3" height="6" fill="#FF5C5C" />
<rect x="12" y="75" width="3" height="3" fill="#FF5C5C" />
<rect x="15" y="75" width="3" height="3" fill="#000000" />
<rect x="18" y="75" width="3" height="3" fill="#892626" />
<rect x="21" y="75" width="27" height="3" fill="#D60909" />
<rect x="48" y="75" width="18" height="3" fill="#4D1616" />
<rect x="66" y="75" width="9" height="6" fill="#000000" />
<rect x="15" y="78" width="3" height="3" fill="#FF5C5C" />
<rect x="18" y="78" width="3" height="3" fill="#000000" />
<rect x="21" y="78" width="27" height="3" fill="#1B0B0B" />
<rect x="48" y="78" width="18" height="6" fill="#000000" />
<rect x="75" y="78" width="3" height="3" fill="#000000" />
<rect x="78" y="78" width="3" height="3" fill="#FF5C5C" />
<rect x="18" y="81" width="3" height="3" fill="#FF5C5C" />
<rect x="21" y="81" width="27" height="3" fill="#000000" />
<rect x="66" y="81" width="12" height="3" fill="#FF5C5C" />
<rect x="21" y="84" width="45" height="3" fill="#FF5C5C" />
</svg>